<svg width="20" height="20" viewBox="0 0 20 20" fill="none" xmlns="http://www.w3.org/2000/svg">
<path d="M7.64286 20L7 17C6.59524 16.8571 6.22024 16.6845 5.875 16.4821C5.52976 16.2798 5.19048 16.0476 4.85714 15.7857L2 16.7143L0 13.2857L2.28571 11.2857C2.2381 10.8571 2.21429 10.4286 2.21429 10C2.21429 9.57143 2.2381 9.14286 2.28571 8.71429L0 6.71429L2 3.28571L4.85714 4.21429C5.19048 3.95238 5.52976 3.72024 5.875 3.51786C6.22024 3.31548 6.59524 3.14286 7 3L7.64286 0H11.6429L12.2857 3C12.6905 3.14286 13.0655 3.31548 13.4107 3.51786C13.756 3.72024 14.0952 3.95238 14.4286 4.21429L17.2857 3.28571L19.2857 6.71429L17 8.71429C17.0476 9.14286 17.0714 9.57143 17.0714 10C17.0714 10.4286 17.0476 10.8571 17 11.2857L19.2857 13.2857L17.2857 16.7143L14.4286 15.7857C14.0952 16.0476 13.756 16.2798 13.4107 16.4821C13.0655 16.6845 12.6905 16.8571 12.2857 17L11.6429 20H7.64286ZM9.64286 14.2857C10.8333 14.2857 11.8452 13.869 12.6786 13.0357C13.5119 12.2024 13.9286 11.1905 13.9286 10C13.9286 8.80952 13.5119 7.79762 12.6786 6.96429C11.8452 6.13095 10.8333 5.71429 9.64286 5.71429C8.45238 5.71429 7.44048 6.13095 6.60714 6.96429C5.77381 7.79762 5.35714 8.80952 5.35714 10C5.35714 11.1905 5.77381 12.2024 6.60714 13.0357C7.44048 13.869 8.45238 14.2857 9.64286 14.2857Z" fill="#252525"/>
</svg>
