<svg width="24" height="24" viewBox="0 0 24 24" fill="none" xmlns="http://www.w3.org/2000/svg">
<g clip-path="url(#clip0_3099_5979)">
<path d="M12 2.16C15.2 2.16 15.58 2.17 16.85 2.23C18.02 2.28 18.66 2.48 19.08 2.64C19.6 2.83 20.07 3.14 20.46 3.54C20.86 3.93 21.17 4.4 21.36 4.92C21.52 5.34 21.72 5.98 21.77 7.15C21.83 8.42 21.84 8.79 21.84 12C21.84 15.21 21.83 15.58 21.77 16.85C21.72 18.02 21.52 18.66 21.36 19.08C20.96 20.13 20.13 20.95 19.08 21.36C18.66 21.52 18.02 21.72 16.85 21.77C15.58 21.83 15.21 21.84 12 21.84C8.79 21.84 8.42 21.83 7.15 21.77C5.98 21.72 5.34 21.52 4.92 21.36C4.4 21.17 3.93 20.86 3.54 20.46C3.14 20.07 2.83 19.6 2.64 19.08C2.48 18.66 2.28 18.02 2.23 16.85C2.17 15.58 2.16 15.21 2.16 12C2.16 8.79 2.17 8.42 2.23 7.15C2.28 5.98 2.48 5.34 2.64 4.92C2.83 4.4 3.14 3.93 3.54 3.54C3.93 3.14 4.4 2.83 4.92 2.64C5.34 2.48 5.98 2.28 7.15 2.23C8.42 2.17 8.79 2.16 12 2.16ZM12 0C8.74 0 8.33 0.01 7.05 0.07C5.77 0.13 4.9 0.33 4.14 0.63C3.34 0.93 2.61 1.4 2.01 2.01C1.4 2.61 0.93 3.33 0.63 4.14C0.33 4.9 0.13 5.78 0.07 7.05C0.01 8.33 0 8.74 0 12C0 15.26 0.01 15.67 0.07 16.95C0.13 18.23 0.33 19.1 0.63 19.86C0.93 20.66 1.4 21.39 2.01 21.99C2.61 22.6 3.33 23.07 4.14 23.37C4.9 23.67 5.78 23.87 7.05 23.93C8.33 23.99 8.74 24 12 24C15.26 24 15.67 23.99 16.95 23.93C18.23 23.87 19.1 23.67 19.86 23.37C21.47 22.75 22.75 21.47 23.37 19.86C23.67 19.1 23.87 18.22 23.93 16.95C23.99 15.67 24 15.26 24 12C24 8.74 23.99 8.33 23.93 7.05C23.87 5.77 23.67 4.9 23.37 4.14C23.07 3.34 22.6 2.61 21.99 2.01C21.39 1.4 20.67 0.93 19.86 0.63C19.1 0.33 18.22 0.13 16.95 0.07C15.67 0.01 15.26 0 12 0Z" fill="#6A6A7C"/>
<path d="M12.0001 5.84009C8.60009 5.84009 5.84009 8.60009 5.84009 12.0001C5.84009 15.4001 8.60009 18.1601 12.0001 18.1601C15.4001 18.1601 18.1601 15.4001 18.1601 12.0001C18.1601 8.60009 15.4001 5.84009 12.0001 5.84009ZM12.0001 16.0001C9.79009 16.0001 8.00009 14.2101 8.00009 12.0001C8.00009 9.79009 9.79009 8.00009 12.0001 8.00009C14.2101 8.00009 16.0001 9.79009 16.0001 12.0001C16.0001 14.2101 14.2101 16.0001 12.0001 16.0001Z" fill="#6A6A7C"/>
<path d="M18.41 4.1499C19.21 4.1499 19.85 4.7899 19.85 5.5899C19.85 6.3899 19.21 7.0299 18.41 7.0299C17.61 7.0299 16.97 6.3899 16.97 5.5899C16.97 4.7899 17.61 4.1499 18.41 4.1499Z" fill="#6A6A7C"/>
</g>
<defs>
<clipPath id="clip0_3099_5979">
<rect width="24" height="24" fill="white"/>
</clipPath>
</defs>
</svg>
