<svg width="24" height="24" viewBox="0 0 24 24" fill="none" xmlns="http://www.w3.org/2000/svg">
<g clip-path="url(#clip0_3099_5983)">
<path d="M7.88989 9.26001C8.71832 9.26001 9.38989 8.58844 9.38989 7.76001C9.38989 6.93158 8.71832 6.26001 7.88989 6.26001C7.06147 6.26001 6.38989 6.93158 6.38989 7.76001C6.38989 8.58844 7.06147 9.26001 7.88989 9.26001Z" fill="#6A6A7C"/>
<path d="M9.13989 11.5C9.13989 10.8096 8.58025 10.25 7.88989 10.25C7.19954 10.25 6.63989 10.8096 6.63989 11.5V16.49C6.63989 17.1804 7.19954 17.74 7.88989 17.74C8.58025 17.74 9.13989 17.1804 9.13989 16.49V11.5Z" fill="#6A6A7C"/>
<path d="M17.6299 13V17.24C17.6299 17.51 17.4099 17.74 17.1299 17.74H15.6299C15.3599 17.74 15.1299 17.52 15.1299 17.24V13.74C15.1299 13.05 14.5699 12.49 13.8799 12.49C13.1899 12.49 12.6299 13.05 12.6299 13.74V17.24C12.6299 17.51 12.4099 17.74 12.1299 17.74H10.6299C10.3599 17.74 10.1299 17.52 10.1299 17.24V10.75C10.1299 10.48 10.3499 10.25 10.6299 10.25H12.1299C12.3999 10.25 12.6299 10.47 12.6299 10.75V11.07C13.1299 10.42 13.9599 10 14.8799 10C16.2599 10 17.6299 11 17.6299 13Z" fill="#6A6A7C"/>
<path d="M21.21 0H2.79C1.25 0 0 1.25 0 2.79V21.21C0 22.75 1.25 24 2.79 24H21.21C22.75 24 24 22.75 24 21.21V2.79C24 1.25 22.75 0 21.21 0ZM22.88 21.21C22.88 22.13 22.13 22.88 21.21 22.88H2.79C1.87 22.88 1.12 22.13 1.12 21.21V2.79C1.12 1.87 1.87 1.12 2.79 1.12H21.21C22.13 1.12 22.88 1.87 22.88 2.79V21.21Z" fill="#6A6A7C"/>
</g>
<rect x="1" y="1" width="22" height="22" rx="5" stroke="#6A6A7C" stroke-width="2"/>
<defs>
<clipPath id="clip0_3099_5983">
<rect width="24" height="24" rx="6" fill="white"/>
</clipPath>
</defs>
</svg>
