<svg width="68" height="68" viewBox="0 0 68 68" fill="none" xmlns="http://www.w3.org/2000/svg">
<path d="M33.9998 62.3333C30.0804 62.3333 26.3971 61.5895 22.9498 60.102C19.5026 58.6145 16.504 56.5958 13.954 54.0458C11.404 51.4958 9.38525 48.4972 7.89775 45.05C6.41025 41.6027 5.6665 37.9194 5.6665 34C5.6665 30.0805 6.41025 26.3972 7.89775 22.95C9.38525 19.5027 11.404 16.5041 13.954 13.9541C16.504 11.4041 19.5026 9.38538 22.9498 7.89788C26.3971 6.41038 30.0804 5.66663 33.9998 5.66663C37.0693 5.66663 39.9734 6.11524 42.7123 7.01246C45.4512 7.90968 47.9776 9.16107 50.2915 10.7666L46.1832 14.9458C44.3887 13.8125 42.4762 12.927 40.4457 12.2895C38.4151 11.652 36.2665 11.3333 33.9998 11.3333C27.7193 11.3333 22.3714 13.5409 17.9561 17.9562C13.5408 22.3715 11.3332 27.7194 11.3332 34C11.3332 40.2805 13.5408 45.6284 17.9561 50.0437C22.3714 54.459 27.7193 56.6666 33.9998 56.6666C40.2804 56.6666 45.6283 54.459 50.0436 50.0437C54.4589 45.6284 56.6665 40.2805 56.6665 34C56.6665 33.15 56.6193 32.3 56.5248 31.45C56.4304 30.6 56.2887 29.7736 56.0998 28.9708L60.704 24.3666C61.2234 25.8777 61.6248 27.4361 61.9082 29.0416C62.1915 30.6472 62.3332 32.3 62.3332 34C62.3332 37.9194 61.5894 41.6027 60.1019 45.05C58.6144 48.4972 56.5957 51.4958 54.0457 54.0458C51.4957 56.5958 48.4971 58.6145 45.0498 60.102C41.6026 61.5895 37.9193 62.3333 33.9998 62.3333ZM30.0332 47.0333L17.9915 34.9916L21.9582 31.025L30.0332 39.1L58.3665 10.6958L62.3332 14.6625L30.0332 47.0333Z" fill="#DA7739"/>
</svg>
