<svg width="24" height="24" viewBox="0 0 24 24" fill="none" xmlns="http://www.w3.org/2000/svg">
<g clip-path="url(#clip0_3099_5989)">
<path d="M12.1901 23.9899C11.8701 23.9899 11.6001 23.7299 11.6001 23.4099C11.6001 23.0799 11.8601 22.8099 12.1801 22.8099C14.9301 22.7699 17.5401 21.6899 19.5101 19.7799C19.7501 19.5499 20.1201 19.5599 20.3501 19.7899C20.5801 20.0199 20.5701 20.3999 20.3401 20.6299C18.1401 22.7499 15.2501 23.9499 12.2001 23.9999L12.1901 23.9899Z" fill="#6A6A7C"/>
<path d="M11.81 1.19001C11.49 1.19001 11.22 0.93001 11.22 0.61001C11.22 0.28001 11.48 0.0100098 11.8 0.0100098H11.85C11.85 0.0100098 11.94 0.0100098 11.99 0.0100098C12.32 0.0100098 12.58 0.27001 12.58 0.60001C12.58 0.93001 12.32 1.19001 11.99 1.19001H11.93C11.93 1.19001 11.85 1.19001 11.81 1.19001Z" fill="#6A6A7C"/>
<path d="M0.59 12.5901C0.26 12.5901 0 12.3301 0 12.0001C0 8.55011 1.49 5.27011 4.1 2.99011C4.35 2.77011 4.72 2.80011 4.93 3.04011C5.15 3.29011 5.12 3.66011 4.88 3.87011C2.53 5.93011 1.19 8.89011 1.19 12.0001C1.19 12.3301 0.93 12.5901 0.6 12.5901H0.59Z" fill="#6A6A7C"/>
<path d="M11.81 23.9901C8.76001 23.9401 5.87001 22.7501 3.67001 20.6201C3.44001 20.3901 3.43001 20.0201 3.66001 19.7801C3.89001 19.5501 4.26001 19.5401 4.50001 19.7701C6.48001 21.6801 9.08001 22.7601 11.83 22.8001C12.16 22.8001 12.42 23.0701 12.41 23.4001C12.41 23.7201 12.14 23.9801 11.82 23.9801L11.81 23.9901Z" fill="#6A6A7C"/>
<path d="M4.08 20.7899C3.93 20.7899 3.78 20.7299 3.67 20.6199C1.3 18.3399 0 15.2799 0 11.9999C0 11.6699 0.26 11.4099 0.59 11.4099C0.92 11.4099 1.18 11.6699 1.18 11.9999C1.18 14.9499 2.35 17.7099 4.49 19.7699C4.72 19.9999 4.73 20.3699 4.5 20.6099C4.38 20.7299 4.23 20.7899 4.07 20.7899H4.08Z" fill="#6A6A7C"/>
<path d="M12 24.0001C12 24.0001 11.9 24.0001 11.85 24.0001H11.8C11.47 23.9901 11.21 23.7201 11.22 23.3901C11.22 23.0701 11.49 22.8101 11.81 22.8101H11.82C11.82 22.8101 11.9 22.8101 11.93 22.8101H11.99C12.32 22.8101 12.58 23.0801 12.58 23.4001C12.58 23.7201 12.32 23.9901 11.99 23.9901L12 24.0001Z" fill="#6A6A7C"/>
<path d="M11.9999 24.0001C11.6699 24.0001 11.4099 23.7401 11.4099 23.4101C11.4099 23.0801 11.6699 22.8201 11.9999 22.8201H12.0599C12.0599 22.8201 12.1399 22.8201 12.1699 22.8201C12.4799 22.8201 12.7699 23.0701 12.7699 23.4001C12.7699 23.7301 12.5199 24.0001 12.1899 24.0001H12.1399C12.1399 24.0001 12.0399 24.0001 11.9899 24.0001H11.9999Z" fill="#6A6A7C"/>
<path d="M19.5099 4.02001C19.3699 4.02001 19.2299 3.97001 19.1199 3.87001C17.1999 2.18001 14.7299 1.23001 12.1699 1.19001C11.8399 1.19001 11.5799 0.92001 11.5899 0.59001C11.5899 0.26001 11.8599 0.0100098 12.1899 0.0100098C15.0299 0.0600098 17.7599 1.11001 19.8999 2.99001C20.1499 3.21001 20.1699 3.58001 19.9499 3.82001C19.8299 3.95001 19.6699 4.02001 19.4999 4.02001H19.5099Z" fill="#6A6A7C"/>
<path d="M4.48991 4.02003C4.32991 4.02003 4.15991 3.95003 4.03991 3.82002C3.81991 3.57002 3.84991 3.20003 4.08991 2.99003C6.22991 1.11003 8.96991 0.060025 11.7999 2.50408e-05C12.1399 -0.00997496 12.3999 0.260025 12.3999 0.580025C12.3999 0.910025 12.1399 1.18002 11.8199 1.18002C9.25991 1.22002 6.79991 2.17002 4.86991 3.86002C4.75991 3.96002 4.61991 4.01003 4.47991 4.01003L4.48991 4.02003Z" fill="#6A6A7C"/>
<path d="M12.1899 1.19001C12.1899 1.19001 12.1099 1.19001 12.0699 1.19001H12.0099C11.6799 1.19001 11.4199 0.92001 11.4199 0.60001C11.4199 0.28001 11.6799 0.0100098 12.0099 0.0100098C12.0599 0.0100098 12.0999 0.0100098 12.1499 0.0100098H12.1999C12.5299 0.0100098 12.7899 0.29001 12.7799 0.61001C12.7799 0.93001 12.5099 1.19001 12.1899 1.19001Z" fill="#6A6A7C"/>
<path d="M19.92 20.7901C19.77 20.7901 19.61 20.7301 19.49 20.6101C19.26 20.3701 19.27 20.0001 19.5 19.7701C21.63 17.7101 22.81 14.9501 22.81 12.0001C22.81 8.90012 21.46 5.93012 19.12 3.87012C18.87 3.65012 18.85 3.28012 19.07 3.04012C19.28 2.79012 19.66 2.77012 19.9 2.99012C22.5 5.27012 24 8.56012 24 12.0001C24 15.4401 22.7 18.3401 20.33 20.6201C20.21 20.7301 20.07 20.7901 19.92 20.7901Z" fill="#6A6A7C"/>
<path d="M7.87996 5.91002C7.77996 5.91002 7.67996 5.89002 7.58996 5.84002C7.29996 5.68002 7.19996 5.32002 7.35996 5.04002C8.39996 3.16002 9.88996 1.51002 11.65 0.260016C11.92 0.0700156 12.29 0.130016 12.47 0.400016C12.66 0.670016 12.6 1.04002 12.33 1.22002C10.71 2.37002 9.33996 3.89002 8.38996 5.61002C8.27996 5.80002 8.07996 5.91002 7.86996 5.91002H7.87996Z" fill="#6A6A7C"/>
<path d="M11.9999 1.32996C11.8099 1.32996 11.6299 1.23996 11.5199 1.07996C11.3299 0.809959 11.3999 0.439959 11.6599 0.259959L11.7299 0.209959C11.7299 0.209959 11.8099 0.149959 11.8599 0.119959C12.1299 -0.0700408 12.4999 -4.07994e-05 12.6799 0.269959C12.8699 0.539959 12.7999 0.909959 12.5299 1.08996C12.5099 1.10996 12.4799 1.12996 12.4599 1.13996C12.4199 1.16996 12.3899 1.19996 12.3499 1.21996C12.2499 1.28996 12.1299 1.32996 12.0099 1.32996H11.9999Z" fill="#6A6A7C"/>
<path d="M7.58007 18.6699C7.36007 18.6699 7.15007 18.5499 7.05007 18.3399C6.06007 16.3399 5.57007 14.2099 5.57007 12.0099C5.57007 11.6799 5.83007 11.4199 6.16007 11.4199C6.49007 11.4199 6.75007 11.6799 6.75007 12.0099C6.75007 14.0299 7.21007 15.9799 8.11007 17.8199C8.25007 18.1099 8.13007 18.4699 7.84007 18.6099C7.76007 18.6499 7.67007 18.6699 7.58007 18.6699Z" fill="#6A6A7C"/>
<path d="M12.19 23.99C12.08 23.99 11.96 23.96 11.86 23.89C11.81 23.86 11.77 23.83 11.73 23.79L11.67 23.74C11.4 23.55 11.34 23.18 11.53 22.92C11.72 22.65 12.09 22.59 12.35 22.78C12.39 22.81 12.42 22.83 12.46 22.86C12.48 22.88 12.51 22.9 12.53 22.91C12.8 23.09 12.87 23.46 12.69 23.73C12.58 23.9 12.39 23.99 12.2 23.99H12.19Z" fill="#6A6A7C"/>
<path d="M11.9999 23.8501C11.8799 23.8501 11.7599 23.8101 11.6599 23.7401C9.69989 22.3601 8.10989 20.4901 7.04989 18.3301C6.90989 18.0401 7.02989 17.6801 7.31989 17.5401C7.60989 17.4001 7.96988 17.5201 8.10988 17.8101C9.07989 19.7901 10.5499 21.5001 12.3399 22.7701C12.6099 22.9601 12.6699 23.3301 12.4799 23.5901C12.3599 23.7501 12.1799 23.8401 11.9999 23.8401V23.8501Z" fill="#6A6A7C"/>
<path d="M6.15006 12.5899C5.82006 12.5899 5.56006 12.3299 5.56006 11.9999C5.56006 9.56991 6.18006 7.15991 7.36006 5.03991C7.52006 4.74991 7.88006 4.64991 8.16006 4.80991C8.45006 4.96991 8.55006 5.32991 8.39006 5.60991C7.31006 7.55991 6.74006 9.76991 6.74006 11.9999C6.74006 12.3299 6.48006 12.5899 6.15006 12.5899Z" fill="#6A6A7C"/>
<path d="M7.88012 5.91005C7.81012 5.91005 7.75012 5.90005 7.68012 5.87005C6.38012 5.40005 5.18012 4.73005 4.12012 3.88005C3.86012 3.68005 3.82012 3.30005 4.03012 3.05005C4.23012 2.79005 4.61012 2.75005 4.86012 2.96005C5.83012 3.73005 6.91012 4.33005 8.09012 4.76005C8.40012 4.87005 8.56012 5.21005 8.44012 5.52005C8.35012 5.76005 8.13012 5.91005 7.88012 5.91005Z" fill="#6A6A7C"/>
<path d="M16.1199 5.91002C15.8799 5.91002 15.6499 5.76002 15.5599 5.52002C15.4499 5.21002 15.6099 4.87002 15.9099 4.76002C17.0899 4.33002 18.1699 3.73002 19.1399 2.96002C19.3999 2.76002 19.7699 2.80002 19.9699 3.05002C20.1699 3.31002 20.1299 3.68002 19.8799 3.88002C18.8099 4.73002 17.6199 5.40002 16.3199 5.87002C16.2499 5.89002 16.1899 5.91002 16.1199 5.91002Z" fill="#6A6A7C"/>
<path d="M11.9999 6.64991C11.6699 6.64991 11.4099 6.38991 11.4099 6.05991C11.4099 5.72991 11.6699 5.46991 11.9999 5.46991C13.3199 5.46991 14.6399 5.22991 15.9199 4.76991C16.2299 4.65991 16.5699 4.81991 16.6799 5.11991C16.7899 5.42991 16.6299 5.76991 16.3299 5.87991C14.9199 6.38991 13.4699 6.64991 12.0099 6.64991H11.9999Z" fill="#6A6A7C"/>
<path d="M12 6.64994C10.54 6.64994 9.09 6.38994 7.68 5.87994C7.37 5.76994 7.21 5.42994 7.33 5.11994C7.44 4.80994 7.78 4.64994 8.09 4.76994C9.37 5.22994 10.69 5.46994 12.01 5.46994C12.34 5.46994 12.6 5.72994 12.6 6.05994C12.6 6.38994 12.34 6.64994 12.01 6.64994H12Z" fill="#6A6A7C"/>
<path d="M19.92 20.7899C19.78 20.7899 19.64 20.7399 19.53 20.6399C18.54 19.7799 17.42 19.0999 16.2 18.6199C15.9 18.4999 15.75 18.1599 15.87 17.8499C15.99 17.5499 16.33 17.3999 16.64 17.5199C17.98 18.0499 19.22 18.7999 20.31 19.7499C20.56 19.9599 20.58 20.3399 20.37 20.5799C20.25 20.7099 20.09 20.7799 19.92 20.7799V20.7899Z" fill="#6A6A7C"/>
<path d="M16.4199 18.6699C16.3499 18.6699 16.2699 18.6599 16.1999 18.6299C14.8399 18.0999 13.4299 17.8299 11.9999 17.8299C11.6699 17.8299 11.4099 17.5699 11.4099 17.2399C11.4099 16.9099 11.6699 16.6499 11.9999 16.6499C13.5799 16.6499 15.1399 16.9499 16.6399 17.5399C16.9399 17.6599 17.0899 17.9999 16.9699 18.3099C16.8799 18.5399 16.6599 18.6899 16.4199 18.6899V18.6699Z" fill="#6A6A7C"/>
<path d="M7.57995 18.6699C7.33995 18.6699 7.11995 18.5299 7.02995 18.2899C6.90995 17.9899 7.05995 17.6399 7.35995 17.5199C8.85995 16.9299 10.42 16.6299 12 16.6299C12.33 16.6299 12.59 16.8899 12.59 17.2199C12.59 17.5499 12.33 17.8099 12 17.8099C10.57 17.8099 9.14995 18.0799 7.78995 18.6099C7.71995 18.6399 7.64995 18.6499 7.56995 18.6499L7.57995 18.6699Z" fill="#6A6A7C"/>
<path d="M4.07989 20.79C3.90989 20.79 3.74989 20.72 3.62989 20.59C3.41989 20.34 3.43989 19.97 3.68989 19.76C4.77989 18.81 6.01989 18.06 7.35989 17.53C7.65989 17.41 8.00989 17.56 8.12989 17.86C8.24989 18.16 8.09989 18.5099 7.79989 18.6299C6.57989 19.1099 5.45989 19.7899 4.46989 20.6499C4.35989 20.7499 4.21989 20.7999 4.07989 20.7999V20.79Z" fill="#6A6A7C"/>
<path d="M17.85 12.5899C17.52 12.5899 17.26 12.3299 17.26 11.9999C17.26 9.76991 16.69 7.55991 15.61 5.60991C15.45 5.31991 15.55 4.95991 15.84 4.80991C16.13 4.64991 16.49 4.74991 16.64 5.03991C17.82 7.16991 18.44 9.56991 18.44 11.9999C18.44 12.3299 18.18 12.5899 17.85 12.5899Z" fill="#6A6A7C"/>
<path d="M11.9999 1.32995C11.8799 1.32995 11.7699 1.29995 11.6599 1.21995C11.6199 1.18995 11.5799 1.15995 11.5399 1.12995C11.5199 1.10995 11.4999 1.08995 11.4699 1.07995C11.1999 0.88995 11.1299 0.529949 11.3199 0.259949C11.4999 -0.0100506 11.8699 -0.0800505 12.1399 0.109949C12.1799 0.139949 12.2199 0.169949 12.2599 0.199949L12.3299 0.249949C12.5999 0.439949 12.6599 0.80995 12.4799 1.06995C12.3599 1.23995 12.1799 1.31995 11.9899 1.31995L11.9999 1.32995Z" fill="#6A6A7C"/>
<path d="M11.8099 23.9901C11.6199 23.9901 11.4299 23.9001 11.3199 23.7301C11.1399 23.4601 11.2099 23.0901 11.4799 22.9101C11.4999 22.8901 11.5299 22.8801 11.5499 22.8601C11.5899 22.8301 11.6199 22.8001 11.6599 22.7801C11.9299 22.5901 12.2999 22.6601 12.4799 22.9301C12.6699 23.2001 12.5999 23.5701 12.3299 23.7501L12.2699 23.8001C12.2699 23.8001 12.1799 23.8701 12.1399 23.9001C12.0399 23.9701 11.9199 24.0001 11.8099 24.0001V23.9901Z" fill="#6A6A7C"/>
<path d="M16.42 18.6699C16.33 18.6699 16.24 18.6499 16.16 18.6099C15.87 18.4699 15.75 18.1099 15.89 17.8199C16.79 15.9799 17.25 14.0299 17.25 12.0099C17.25 11.6799 17.51 11.4199 17.84 11.4199C18.17 11.4199 18.43 11.6799 18.43 12.0099C18.43 14.2099 17.93 16.3399 16.95 18.3399C16.85 18.5499 16.64 18.6699 16.42 18.6699Z" fill="#6A6A7C"/>
<path d="M12 23.8499C11.81 23.8499 11.63 23.7599 11.52 23.5999C11.33 23.3299 11.39 22.9599 11.66 22.7799C13.46 21.5099 14.92 19.7899 15.89 17.8199C16.03 17.5299 16.39 17.4099 16.68 17.5499C16.97 17.6899 17.09 18.0499 16.95 18.3399C15.89 20.4899 14.3 22.3599 12.34 23.7499C12.24 23.8199 12.12 23.8599 12 23.8599V23.8499Z" fill="#6A6A7C"/>
<path d="M16.12 5.91002C15.91 5.91002 15.71 5.80002 15.6 5.61002C14.65 3.89002 13.28 2.37002 11.66 1.22002C11.39 1.03002 11.33 0.660016 11.52 0.400016C11.71 0.130016 12.08 0.0700156 12.34 0.260016C14.11 1.51002 15.59 3.16002 16.63 5.04002C16.79 5.33002 16.69 5.69002 16.4 5.84002C16.31 5.89002 16.21 5.91002 16.11 5.91002H16.12Z" fill="#6A6A7C"/>
<path d="M6.15 12.5899H0.59C0.26 12.5899 0 12.3299 0 11.9999C0 11.6699 0.26 11.4099 0.59 11.4099H6.15C6.48 11.4099 6.74 11.6699 6.74 11.9999C6.74 12.3299 6.48 12.5899 6.15 12.5899Z" fill="#6A6A7C"/>
<path d="M17.8499 12.5899H11.9999C11.6699 12.5899 11.4099 12.3299 11.4099 11.9999C11.4099 11.6699 11.6699 11.4099 11.9999 11.4099H17.8499C18.1799 11.4099 18.4399 11.6699 18.4399 11.9999C18.4399 12.3299 18.1799 12.5899 17.8499 12.5899Z" fill="#6A6A7C"/>
<path d="M12.0001 12.5899H6.15006C5.82006 12.5899 5.56006 12.3299 5.56006 11.9999C5.56006 11.6699 5.82006 11.4099 6.15006 11.4099H12.0001C12.3301 11.4099 12.5901 11.6699 12.5901 11.9999C12.5901 12.3299 12.3301 12.5899 12.0001 12.5899Z" fill="#6A6A7C"/>
<path d="M23.07 12.5899H17.84C17.51 12.5899 17.25 12.3299 17.25 11.9999C17.25 11.6699 17.51 11.4099 17.84 11.4099H23.07C23.4 11.4099 23.66 11.6699 23.66 11.9999C23.66 12.3299 23.4 12.5899 23.07 12.5899Z" fill="#6A6A7C"/>
<path d="M11.9999 6.6499C11.6699 6.6499 11.4099 6.3899 11.4099 6.0599V0.739902C11.4099 0.409902 11.6699 0.149902 11.9999 0.149902C12.3299 0.149902 12.5899 0.409902 12.5899 0.739902V6.0599C12.5899 6.3899 12.3299 6.6499 11.9999 6.6499Z" fill="#6A6A7C"/>
<path d="M11.9999 12.59C11.6699 12.59 11.4099 12.33 11.4099 12V6.05997C11.4099 5.72997 11.6699 5.46997 11.9999 5.46997C12.3299 5.46997 12.5899 5.72997 12.5899 6.05997V12C12.5899 12.33 12.3299 12.59 11.9999 12.59Z" fill="#6A6A7C"/>
<path d="M11.9999 23.8499C11.6699 23.8499 11.4099 23.5899 11.4099 23.2599V17.2299C11.4099 16.8999 11.6699 16.6399 11.9999 16.6399C12.3299 16.6399 12.5899 16.8999 12.5899 17.2299V23.2599C12.5899 23.5899 12.3299 23.8499 11.9999 23.8499Z" fill="#6A6A7C"/>
<path d="M11.9999 1.33C11.6699 1.33 11.4099 1.07 11.4099 0.74V0.59C11.4099 0.26 11.6699 0 11.9999 0C12.3299 0 12.5899 0.26 12.5899 0.59V0.74C12.5899 1.07 12.3299 1.33 11.9999 1.33Z" fill="#6A6A7C"/>
<path d="M11.9999 17.8199C11.6699 17.8199 11.4099 17.5599 11.4099 17.2299V11.9999C11.4099 11.6699 11.6699 11.4099 11.9999 11.4099C12.3299 11.4099 12.5899 11.6699 12.5899 11.9999V17.2299C12.5899 17.5599 12.3299 17.8199 11.9999 17.8199Z" fill="#6A6A7C"/>
<path d="M11.9999 23.9999C11.6699 23.9999 11.4099 23.7399 11.4099 23.4099V23.2599C11.4099 22.9299 11.6699 22.6699 11.9999 22.6699C12.3299 22.6699 12.5899 22.9299 12.5899 23.2599V23.4099C12.5899 23.7399 12.3299 23.9999 11.9999 23.9999Z" fill="#6A6A7C"/>
</g>
<defs>
<clipPath id="clip0_3099_5989">
<rect width="24" height="24" fill="white"/>
</clipPath>
</defs>
</svg>
